<svg width="99" height="49" viewBox="0 0 99 49" fill="none" xmlns="http://www.w3.org/2000/svg">
<path d="M87.9401 22.9339L85.7417 9.85728C85.7417 9.85728 87.0183 -1.95822 46.7696 12.4982C30.5878 18.3108 20.0433 20.4117 13.2065 20.8513L11.6798 11.9003C0.306441 14.2141 0.71502 17.5228 1.1774 18.5786C1.12215 18.5147 1.09597 18.4767 1.09597 18.4767L5.26464 42.9337C5.26464 42.9337 12.2948 45.9397 36.4359 40.1589L37.8855 48.6536C93.7228 38.697 89.4887 32.0218 89.4887 32.0218L87.9401 22.9339ZM4.65105 15.2927L5.18467 18.4295L5.28936 18.4082C5.28791 18.4295 5.26319 18.4523 5.26755 18.4751L2.67504 18.8326C2.48165 17.2931 3.38314 16.1415 4.65105 15.2927ZM5.14251 24.3502V24.3532L4.95203 24.3167C4.92586 24.3106 4.89823 24.3076 4.87351 24.3L3.92404 24.1098L3.42386 21.189C4.42858 21.3488 5.45803 21.6348 5.45803 21.6348L5.94512 24.4901C5.67032 24.4506 5.40568 24.4004 5.14251 24.3502ZM5.86225 14.6142C6.54854 14.2887 7.26392 14.0285 7.94004 13.8216L8.40387 16.5401C7.60125 16.8018 6.88151 17.0999 6.33771 17.4011L5.86225 14.6142ZM7.30172 24.6559L6.82771 21.8675C7.50819 21.9557 8.22503 22.0181 8.98693 22.0501L9.45222 24.7807C8.70631 24.7624 7.99093 24.7214 7.30172 24.6559ZM9.20794 13.4748C9.8448 13.3242 10.3639 13.2299 10.6489 13.1827L11.0516 15.886C10.5834 15.962 10.124 16.0655 9.66887 16.1765L9.20794 13.4748ZM10.2868 42.1594L9.80991 39.3694C10.4904 39.4607 11.2087 39.5215 11.9706 39.5504L12.4359 42.2826C11.69 42.2659 10.9731 42.2233 10.2868 42.1594ZM10.7797 24.7761L10.3203 22.0759C10.9993 22.0774 11.7059 22.0592 12.4388 22.0196L12.8939 24.6955C12.1698 24.7411 11.4675 24.7655 10.7797 24.7761ZM13.7634 42.278L13.301 39.5778C13.9829 39.5778 14.6881 39.5611 15.421 39.5215L15.8775 42.1959C15.1534 42.243 14.4511 42.2659 13.7634 42.278ZM14.2083 24.6103L13.7532 21.9344C14.4337 21.8797 15.1316 21.8097 15.8499 21.7321L16.3021 24.3928C15.5925 24.4734 14.8932 24.551 14.2083 24.6103ZM17.1905 42.1107L16.7354 39.4348C17.4173 39.3816 18.1153 39.3116 18.8292 39.231L19.2843 41.8901C18.5733 41.9768 17.8753 42.0514 17.1905 42.1107ZM17.602 24.2254L17.1483 21.5678C17.8303 21.4781 18.5224 21.3777 19.2261 21.2636L19.6798 23.9227C18.9789 24.0368 18.2868 24.1342 17.602 24.2254ZM20.5842 41.7273L20.1334 39.0697C20.8125 38.98 21.5046 38.8765 22.2112 38.764L22.6634 41.4246C21.9611 41.5402 21.2705 41.6345 20.5842 41.7273ZM22.188 23.4907C21.7794 23.5667 21.3737 23.6291 20.9695 23.6991L20.5173 21.0491C21.1934 20.9319 21.8826 20.8026 22.5805 20.6688L23.0327 23.3203C22.7536 23.3766 22.4686 23.4374 22.188 23.4907ZM25.1716 40.9926C24.7616 41.0702 24.3588 41.1341 23.9531 41.204L23.5009 38.5525C24.1785 38.4369 24.8677 38.3106 25.5656 38.1737L26.0164 40.8268C25.7372 40.8785 25.4522 40.9378 25.1716 40.9926ZM24.3181 23.0662L23.8644 20.4147C24.5406 20.2748 25.2269 20.1287 25.9204 19.9736L26.3712 22.6251C25.6863 22.7772 25 22.9278 24.3181 23.0662ZM27.3032 40.5682L26.8495 37.9151C27.5257 37.7767 28.212 37.6291 28.9055 37.4739L29.3577 40.124C28.6685 40.2791 27.9851 40.4297 27.3032 40.5682ZM27.6493 22.3391L27.1971 19.6845C27.8732 19.5263 28.5566 19.362 29.2443 19.1932L29.698 21.8477C29.0175 22.0166 28.3341 22.1794 27.6493 22.3391ZM30.6329 39.841L30.1822 37.188C30.8612 37.0297 31.5431 36.8654 32.2323 36.6951L32.6831 39.3496C31.9997 39.5185 31.3163 39.6813 30.6329 39.841ZM30.9688 21.5267L30.5166 18.8737C31.1912 18.7018 31.8732 18.5238 32.558 18.3397L33.0117 20.9989C32.3341 21.1799 31.6536 21.3548 30.9688 21.5267ZM34.2796 20.6551L33.8259 17.9975C34.4991 17.8119 35.1767 17.6217 35.8586 17.4255L36.3108 20.0861C35.6391 20.2793 34.963 20.4664 34.2796 20.6551ZM85.3302 12.9424L85.9728 16.7105L86.0092 16.7394C85.7737 17.0878 85.0626 17.8773 83.123 19.0091L82.3931 14.7192C82.5094 14.6918 82.6242 14.6507 82.7391 14.6081C82.8293 14.5777 82.9063 14.5518 82.9688 14.5321C84.0928 14.0787 85.1019 13.1584 85.3302 12.9424ZM80.9885 6.82849L80.9914 6.83001C81.0655 6.83609 81.1252 6.84065 81.147 6.8437V6.85435C81.4785 6.91672 82.2695 7.07797 82.4803 7.28638L82.9427 10.0018L80.862 9.56368C80.8591 9.56368 80.8154 9.55912 80.7907 9.55608L80.3167 6.77676C80.625 6.79806 80.846 6.81632 80.9885 6.82849ZM81.8551 19.7013C81.1193 20.08 80.2527 20.4877 79.2451 20.9228L78.5457 16.817C79.6581 16.3165 80.5043 15.8784 81.1426 15.5133L81.8551 19.7013ZM78.9805 6.71591L79.4487 9.47849C78.8918 9.45872 78.1749 9.44502 77.3156 9.45719L76.8489 6.70983C77.6675 6.69614 78.3843 6.7007 78.9805 6.71591ZM77.2546 17.3753L77.951 21.4644C77.1513 21.7869 76.2716 22.1246 75.3047 22.4745L74.6112 18.4082C75.6028 18.0431 76.4781 17.6993 77.2546 17.3753ZM75.5272 6.75851L75.9954 9.49523C75.3454 9.52109 74.646 9.55912 73.8856 9.61693L73.4189 6.88782C74.1749 6.82544 74.87 6.78589 75.5272 6.75851ZM74.0005 22.9339C73.1673 23.2214 72.2775 23.5165 71.3294 23.8193L70.6402 19.7667C71.6042 19.4594 72.4868 19.1627 73.3083 18.8767L74.0005 22.9339ZM72.1146 7.00951L72.5784 9.73406C71.9139 9.79948 71.2189 9.8801 70.489 9.97594L70.0252 7.26052C70.7536 7.16012 71.4443 7.07949 72.1146 7.00951ZM68.7311 7.45067L69.1949 10.16C68.5275 10.2619 67.8354 10.3821 67.1244 10.5129L66.662 7.80665C67.3745 7.67278 68.0637 7.55412 68.7311 7.45067ZM69.3272 20.182L70.0164 24.2315C69.1688 24.4916 68.2702 24.7563 67.3323 25.0241L66.6417 20.9821C67.5868 20.7098 68.4839 20.4421 69.3272 20.182ZM65.3752 8.05613L65.8362 10.7624C65.1731 10.9009 64.4839 11.056 63.7874 11.2234L63.3265 8.51859C64.0259 8.3543 64.7107 8.19608 65.3752 8.05613ZM65.32 21.3579L66.0077 25.3968C65.1513 25.6371 64.2484 25.879 63.3134 26.1224L62.6271 22.0866C63.5592 21.8416 64.4679 21.5967 65.32 21.3579ZM62.0528 8.83805L62.5152 11.5443C61.8478 11.7193 61.1717 11.9018 60.481 12.1026L60.0172 9.39178C60.7093 9.18946 61.3868 9.00995 62.0528 8.83805ZM61.9874 26.4677C61.1193 26.6898 60.2178 26.9135 59.2843 27.1447L58.5995 23.1119C59.5373 22.8822 60.433 22.6586 61.3011 22.4334L61.9874 26.4677ZM58.758 9.78274L59.2204 12.4951C58.5559 12.702 57.8841 12.9256 57.2051 13.1629L56.7398 10.4384C57.4217 10.2041 58.095 9.98811 58.758 9.78274ZM57.9539 27.4626C57.0786 27.6695 56.1727 27.8825 55.2422 28.0955L54.5573 24.0657C55.4894 23.8512 56.3923 23.6413 57.2676 23.4313L57.9539 27.4626ZM54.7289 11.1519C54.9863 11.056 55.2349 10.9769 55.4864 10.8826L55.9517 13.6026C55.8383 13.6467 55.7278 13.6786 55.6115 13.7243C55.1796 13.8871 54.6039 14.1016 53.9466 14.3419L53.4813 11.6143C53.8972 11.4607 54.316 11.3085 54.7289 11.1519ZM53.9088 28.3967C53.0306 28.5944 52.1189 28.7937 51.1898 28.9945L50.5035 24.9678C51.4399 24.764 52.3414 24.5662 53.2211 24.3684L53.9088 28.3967ZM52.2324 12.0753L52.6933 14.7952C52.0782 15.0173 51.4166 15.2531 50.6882 15.5087L50.2258 12.7978C50.9019 12.5575 51.5664 12.3171 52.2324 12.0753ZM48.9724 13.239L49.4334 15.9438C48.7936 16.1644 48.1262 16.3941 47.4239 16.6283L46.963 13.9312C47.6362 13.703 48.308 13.4718 48.9724 13.239ZM49.1673 25.2492L49.855 29.279C48.9695 29.4676 48.0608 29.6547 47.1331 29.8434L46.4468 25.8136C47.3774 25.625 48.2832 25.4363 49.1673 25.2492ZM45.7082 14.3571L46.1676 17.0482C45.5133 17.2627 44.8416 17.4818 44.148 17.7069L43.69 15.0234C44.3661 14.8044 45.0379 14.5838 45.7082 14.3571ZM45.794 30.1111C44.9012 30.2922 43.9982 30.4717 43.0677 30.6527L42.3799 26.6229C43.3105 26.4419 44.2193 26.2639 45.1062 26.0844L45.794 30.1111ZM42.4337 15.4311L42.8903 18.1085C42.2302 18.3154 41.5569 18.5253 40.8663 18.7398L40.4097 16.0685C41.0873 15.8601 41.7605 15.6441 42.4337 15.4311ZM39.1491 16.4549L39.6057 19.1217C38.9383 19.3225 38.2636 19.5263 37.5773 19.7241L37.1222 17.0589C37.7983 16.8641 38.4744 16.6588 39.1491 16.4549ZM37.6936 31.6628L37.0248 27.633C38.4061 27.382 39.738 27.131 41.0379 26.883L41.7242 30.9098C41.0902 31.0284 40.4737 31.1486 39.8208 31.2703C39.1244 31.4011 38.4119 31.5304 37.6936 31.6628ZM42.2025 46.539C41.4872 46.6744 40.7558 46.8068 40.02 46.9422L39.3497 42.9002C40.7485 42.6462 42.1007 42.3921 43.4181 42.1411L44.1044 46.1785C43.4704 46.3002 42.8568 46.4189 42.2025 46.539ZM45.3897 45.9336L44.7005 41.8916C45.65 41.7076 46.5806 41.5235 47.4879 41.3455L48.1742 45.3829C47.2625 45.5654 46.345 45.7495 45.3897 45.9336ZM49.4566 45.1258L48.7689 41.0839C49.7169 40.8876 50.6417 40.6959 51.5475 40.5058L52.2353 44.5508C51.3323 44.7409 50.4076 44.9326 49.4566 45.1258ZM53.5177 44.2754L52.8285 40.238C53.7809 40.0296 54.7027 39.8273 55.5999 39.6265L56.2876 43.67C55.3919 43.8693 54.4672 44.0716 53.5177 44.2754ZM57.5686 43.3779L56.8779 39.3314C57.8303 39.1138 58.7536 38.9009 59.6435 38.6849L60.3327 42.7344C59.4414 42.9474 58.5195 43.1604 57.5686 43.3779ZM61.6108 42.4302L60.9201 38.3821C61.8798 38.1463 62.7929 37.9151 63.6813 37.6869L64.369 41.738C63.4835 41.9631 62.5646 42.1928 61.6108 42.4302ZM65.6428 41.4094L64.9492 37.3553C65.903 37.1012 66.8307 36.8548 67.6987 36.6114L68.3923 40.667C67.517 40.912 66.5951 41.1599 65.6428 41.4094ZM69.6588 40.308L68.9681 36.2463C69.9292 35.9694 70.8467 35.6987 71.7046 35.4309L72.3952 39.5002C71.5359 39.7649 70.6141 40.0357 69.6588 40.308ZM73.6573 39.1062L72.9623 35.0369C73.9467 34.7205 74.8482 34.4178 75.6857 34.1226L76.3807 38.2041C75.533 38.4977 74.6301 38.7989 73.6573 39.1062ZM77.6326 37.763L76.9361 33.6739C77.9481 33.3027 78.8438 32.9482 79.6333 32.6212L80.3342 36.7331C79.5185 37.0647 78.6213 37.4085 77.6326 37.763ZM81.5759 36.2189L80.8707 32.0842C82.0107 31.5715 82.8743 31.1243 83.5214 30.7516L84.2397 34.9715C83.4894 35.3564 82.6068 35.7747 81.5759 36.2189ZM85.4538 34.3098L84.7151 29.9879C84.8344 29.9575 84.9478 29.9179 85.0626 29.8769C85.1557 29.8449 85.2313 29.8206 85.2938 29.8008C86.5675 29.2836 87.7002 28.1609 87.7002 28.1609L88.3516 31.9807L88.3894 32.0096C88.1524 32.3595 87.44 33.1597 85.4538 34.3098Z" fill="#FFCD82" fill-opacity="0.87" stroke="#FED08B" stroke-opacity="0.87" stroke-width="0.000989984"/>
<path d="M46.5495 36.007L47.6536 35.7773L48.9915 35.4435L49.1354 35.5319L49.3306 36.7806L47.8449 37.0785L46.864 37.3152L47.0047 37.9385L47.7032 40.4186L46.0287 40.7933L45.5316 38.4231L44.0352 32.9337L48.7468 31.8797L48.8784 31.9881L49.0778 33.253L47.1734 33.6102L46.0406 33.8636L46.5495 36.007ZM50.114 30.9363C50.3766 30.8775 50.5984 30.9083 50.7793 31.0287C50.9574 31.1381 51.0809 31.3288 51.1499 31.6005C51.216 31.8614 51.1932 32.0906 51.0813 32.2879C50.9695 32.4852 50.7767 32.6145 50.5031 32.6757C50.2404 32.7345 50.0146 32.7103 49.8255 32.6033C49.6446 32.4829 49.5211 32.2923 49.4549 32.0314C49.3888 31.7705 49.4171 31.5402 49.5399 31.3404C49.66 31.1297 49.8513 30.995 50.114 30.9363ZM53.032 39.2265L51.3903 39.5938L50.8769 37.2273L49.9923 34.0134L51.6009 33.5157L52.3007 36.7537L53.032 39.2265ZM56.1861 38.5209L54.5609 38.8845L54.0433 36.5017L52.435 30.4342L54.0272 29.9402L55.4713 36.0444L56.1861 38.5209ZM63.767 33.0858C63.6263 32.4855 63.2933 32.244 62.7679 32.3616C62.3958 32.4448 62.0487 32.6948 61.7264 33.1115L62.0781 34.5664L62.7601 37.0502L61.1349 37.4138L60.3359 33.8534C60.1843 33.2555 59.8458 33.0153 59.3205 33.1328C58.9483 33.2161 58.5957 33.4673 58.2625 33.8864L58.6306 35.3377L59.3454 37.8141L57.7202 38.1777L57.2067 35.8113L56.3222 32.5974L57.8323 32.1217L58.0432 32.9533L58.1253 32.9349C58.4911 32.4166 58.9092 32.0129 59.3795 31.7239C60.3097 31.5158 60.9779 31.6879 61.3841 32.2404L61.4333 32.2294C61.8046 31.6868 62.2637 31.2624 62.8105 30.9563C63.4344 30.8167 63.9408 30.8528 64.3299 31.0644C64.7299 31.2736 64.9906 31.6403 65.112 32.1646L65.4928 33.8025L66.1912 36.2827L64.5659 36.6463L63.767 33.0858ZM68.0679 33.0886C68.3955 34.1066 69.0299 34.5104 69.9711 34.2998C70.5074 34.1798 71.0215 33.904 71.5134 33.4723L71.6695 33.5408L71.758 34.7788C71.2496 35.1453 70.7067 35.3989 70.1294 35.5395C69.221 35.7427 68.4489 35.6397 67.8131 35.2306C67.1773 34.8214 66.7436 34.1602 66.512 33.2471C66.2777 32.3231 66.3461 31.5439 66.7172 30.9094C67.0964 30.2617 67.6801 29.8497 68.4681 29.6734C69.2561 29.4971 69.8926 29.5672 70.3777 29.8838C70.871 30.187 71.2058 30.6864 71.3823 31.3822C71.4374 31.5996 71.4775 31.8261 71.5026 32.0617L71.3142 32.3451L68.0679 33.0886ZM68.7862 30.7223C68.4688 30.7933 68.2268 30.9566 68.0603 31.2121C67.9048 31.4651 67.8424 31.7892 67.8732 32.1844L69.9252 31.6564L69.9249 31.5186C69.7458 30.858 69.3662 30.5925 68.7862 30.7223ZM73.7401 28.494C74.3612 28.3436 74.9428 28.3111 75.4849 28.3966L75.5734 29.6347L75.393 29.744C74.8205 29.5389 74.3318 29.4817 73.9269 29.5723C73.7299 29.6163 73.5849 29.7062 73.4921 29.8418C73.4075 29.9641 73.3845 30.1014 73.4231 30.2536C73.4617 30.4058 73.5714 30.5191 73.7522 30.5935C73.933 30.668 74.2041 30.7337 74.5655 30.7907C74.9269 30.8477 75.2281 30.9181 75.4692 31.0021C75.7184 31.0727 75.9472 31.1995 76.1555 31.3827C76.3611 31.5549 76.5053 31.8041 76.588 32.1303C76.6707 32.4564 76.6658 32.7791 76.5734 33.0985C76.3502 33.8147 75.7462 34.283 74.7612 34.5033C74.1702 34.6355 73.5256 34.6476 72.8274 34.5396L72.7018 33.2237L72.8247 33.0928C73.1316 33.2539 73.4603 33.3642 73.8107 33.4236C74.1584 33.4722 74.4472 33.4708 74.6771 33.4193C74.9069 33.3679 75.0682 33.2744 75.161 33.1388C75.2538 33.0031 75.281 32.8592 75.2424 32.707C75.201 32.5439 75.0899 32.4252 74.9091 32.3508C74.7256 32.2655 74.4531 32.1943 74.0917 32.1373C73.7275 32.0695 73.4263 31.999 73.188 31.9259C72.5882 31.7499 72.2167 31.3793 72.0733 30.814C71.9299 30.2488 72.0139 29.759 72.3252 29.3447C72.6446 28.9171 73.1163 28.6336 73.7401 28.494Z" fill="#176596"/>
<g filter="url(#filter0_d_19_45)">
<path d="M26.9038 33.0596L27.1533 33.8826L22.072 35.2418L19.9397 32.6877L14.2787 34.2019L13.8993 37.4279L8.81795 38.7871L8.56837 37.9641L10.7903 37.3698L12.4698 23.3467L15.3873 22.5663L24.6626 33.6591L26.9038 33.0596ZM15.1455 26.9349L14.6235 31.2749L18.0046 30.3705L15.1455 26.9349ZM39.1554 29.7825L39.405 30.6055L25.1849 34.4091L24.9353 33.5862L29.0893 32.475C27.877 32.151 26.8198 31.5578 25.9177 30.6955C25.0247 29.817 24.3808 28.7271 23.9861 27.4256C23.3902 25.4606 23.5738 23.632 24.5367 21.9398C25.5125 20.2442 26.9921 19.1311 28.9757 18.6005C31.1912 18.0079 33.2994 18.3475 35.3005 19.6194L34.0648 22.226C32.7557 21.3071 31.3927 21.0371 29.9758 21.4161C28.8423 21.7193 27.9821 22.3494 27.395 23.3065C26.817 24.2474 26.7176 25.3431 27.0968 26.5935C27.4721 27.8312 28.1539 28.7248 29.1421 29.2743C30.1304 29.8239 31.1655 29.9539 32.2475 29.6645C33.7287 29.2683 34.7634 28.3639 35.3516 26.9513L37.8815 28.4058C37.5121 29.2081 37.0351 29.9082 36.4505 30.506L39.1554 29.7825ZM50.6138 18.5028L49.1794 26.7908L47.3826 27.2714L41.5331 20.9318L44.0869 29.3531L39.1988 30.6606L38.9492 29.8376L40.8233 29.3363L37.0158 16.781L41.0925 15.6905L46.799 22.1097L48.0672 13.8248L52.1246 12.7396L55.9321 25.2949L57.8062 24.7936L58.0558 25.6166L53.1677 26.9241L50.6138 18.5028ZM59.2573 24.4055L55.4497 11.8501L65.1874 9.24544L65.9942 11.9058L59.2705 13.7043L60.1063 16.4603L66.1537 14.8427L66.9257 17.3883L60.8783 19.0059L61.7199 21.7811L68.6561 19.9257L69.2074 21.744L71.0816 21.2427L71.3311 22.0656L57.6327 25.7298L57.3831 24.9068L59.2573 24.4055Z" fill="#25495B"/>
</g>
<defs>
<filter id="filter0_d_19_45" x="0.667969" y="8.38107" width="74.6631" height="38.406" filterUnits="userSpaceOnUse" color-interpolation-filters="sRGB">
<feFlood flood-opacity="0" result="BackgroundImageFix"/>
<feColorMatrix in="SourceAlpha" type="matrix" values="0 0 0 0 0 0 0 0 0 0 0 0 0 0 0 0 0 0 127 0" result="hardAlpha"/>
<feOffset dy="4"/>
<feGaussianBlur stdDeviation="2"/>
<feComposite in2="hardAlpha" operator="out"/>
<feColorMatrix type="matrix" values="0 0 0 0 0 0 0 0 0 0 0 0 0 0 0 0 0 0 0.25 0"/>
<feBlend mode="normal" in2="BackgroundImageFix" result="effect1_dropShadow_19_45"/>
<feBlend mode="normal" in="SourceGraphic" in2="effect1_dropShadow_19_45" result="shape"/>
</filter>
</defs>
</svg>
